<svg xmlns="http://www.w3.org/2000/svg" viewBox="0 0 1500 500" role="img" aria-labelledby="title desc">
  <title id="title">ReActor — controlled intelligence for builders</title>
  <desc id="desc">ReActor logo over a dark technical grid.</desc>
  <defs>
    <linearGradient id="ion" x1="545" y1="100" x2="960" y2="390" gradientUnits="userSpaceOnUse"><stop stop-color="#D8FF4F"/><stop offset="1" stop-color="#54D7C7"/></linearGradient>
    <pattern id="grid" width="40" height="40" patternUnits="userSpaceOnUse"><path d="M40 0H0V40" fill="none" stroke="#152124" stroke-width="1"/></pattern>
    <radialGradient id="halo"><stop stop-color="#D8FF4F" stop-opacity=".16"/><stop offset="1" stop-color="#D8FF4F" stop-opacity="0"/></radialGradient>
  </defs>
  <rect width="1500" height="500" fill="#070B0D"/><rect x="22" y="22" width="1456" height="456" rx="12" fill="url(#grid)" stroke="#273837"/>
  <ellipse cx="750" cy="202" rx="300" ry="190" fill="url(#halo)"/>
  <g transform="translate(676 70) scale(2.25)"><rect width="64" height="64" rx="16" fill="#0A0F12" stroke="#334241"/><path d="M18 48V16h17.5c7.1 0 11.5 3.8 11.5 9.6 0 4.6-2.7 7.8-7.1 9.1L50 48h-9.1l-8.7-12.1H25V48h-7Zm7-25.6v7.2h9.7c3.1 0 4.8-1.2 4.8-3.6 0-2.4-1.7-3.6-4.8-3.6H25Z" fill="url(#ion)"/><path d="M38.5 9.5c10.2 1.3 17 8.6 17 18.1 0 6.7-3.2 12.5-8.7 16.1" fill="none" stroke="#54D7C7" stroke-width="3" stroke-linecap="round"/><path d="m45.1 41.8 1.7 5.2 5.4-1.2" fill="none" stroke="#54D7C7" stroke-width="3" stroke-linecap="round" stroke-linejoin="round"/><circle cx="39.5" cy="9.8" r="2.5" fill="#D8FF4F"/></g>
  <text x="750" y="344" text-anchor="middle" fill="#F3F5EE" font-family="Inter, ui-sans-serif, sans-serif" font-size="72" font-weight="650" letter-spacing="-3">reactor</text>
  <text x="750" y="386" text-anchor="middle" fill="#9CAAA5" font-family="ui-monospace,monospace" font-size="16" letter-spacing="5">CONTROLLED INTELLIGENCE FOR BUILDERS</text>
  <circle cx="510" cy="385" r="4" fill="#D8FF4F"/><circle cx="990" cy="385" r="4" fill="#54D7C7"/>
</svg>
